<svg id="user" xmlns="http://www.w3.org/2000/svg" width="37.999" height="38" viewBox="0 0 37.999 38">
  <path id="Path_1661" data-name="Path 1661" d="M16.016,32.056l-5.669,3.092a5.1,5.1,0,0,0-.91.647,18.988,18.988,0,0,0,24.4.063,5.029,5.029,0,0,0-1-.67l-6.071-3.035a2.315,2.315,0,0,1-1.28-2.071V27.7a9.169,9.169,0,0,0,.574-.738,13.969,13.969,0,0,0,1.887-3.8A1.907,1.907,0,0,0,29.3,21.347V18.8a1.9,1.9,0,0,0-.635-1.409V13.72S29.417,8,21.672,8s-6.991,5.719-6.991,5.719V17.4a1.9,1.9,0,0,0-.635,1.409v2.542a1.906,1.906,0,0,0,.879,1.6,12.617,12.617,0,0,0,2.3,4.756v2.323A2.317,2.317,0,0,1,16.016,32.056Z" transform="translate(-2.671 -2.264)" fill="#ebeff3"/>
  <g id="Group_8903" data-name="Group 8903" transform="translate(0 0)">
    <path id="Path_1662" data-name="Path 1662" d="M19.325,0A18.988,18.988,0,0,0,6.774,33.526a5.049,5.049,0,0,1,.9-.641l5.669-3.092a2.316,2.316,0,0,0,1.207-2.033V25.437a12.6,12.6,0,0,1-2.3-4.756,1.907,1.907,0,0,1-.879-1.6V16.539a1.9,1.9,0,0,1,.635-1.409V11.455S11.254,5.736,19,5.736s6.991,5.719,6.991,5.719V15.13a1.9,1.9,0,0,1,.635,1.409v2.542A1.907,1.907,0,0,1,25.273,20.9a13.969,13.969,0,0,1-1.887,3.8,9.169,9.169,0,0,1-.574.738v2.382a2.314,2.314,0,0,0,1.28,2.071l6.071,3.035a5.055,5.055,0,0,1,1,.668A19,19,0,0,0,19.325,0Z" transform="translate(0 0)" fill="#c2c4d4"/>
  </g>
</svg>
