<svg xmlns="http://www.w3.org/2000/svg" width="111.519" height="40" viewBox="0 0 111.519 40"><defs><style>.a{fill:#303778;}</style></defs><path class="a" d="M33.842,5.8,31.849,7.739C27.576,3.932,22.691,2.212,17.065,3.17A16.747,16.747,0,0,0,6.431,9.647,17.39,17.39,0,0,0,7,31.022c5.463,6.347,15.508,8.444,23.86,2.125.571.68,1.164,1.39,1.759,2.1C26.079,41.368,13.68,42.273,5.526,33.82A20.141,20.141,0,0,1,6.533,5.12C14.044-1.93,27.1-1.7,33.842,5.8Z" transform="translate(0 0)"/><path class="a" d="M31.558,42.443v2.829A14.229,14.229,0,0,1,19.967,39c-3.737-5.395-3.987-11.133-.625-16.8,2.691-4.541,6.8-6.9,12.186-7.26v2.838c-4.089.576-7.534,2.355-9.759,6.084a12.536,12.536,0,0,0-1.6,7.875C20.7,37.186,25.151,41.454,31.558,42.443Z" transform="translate(-11.907 -10.471)"/><path class="a" d="M88.618,49.681c-.042,4.895-3.019,7.892-7.781,7.841-4.66-.051-7.441-3-7.387-7.835s3.052-7.667,8.121-7.634C85.963,42.078,88.657,45,88.618,49.681Zm-11.87.072c0,.3-.015.6,0,.9.138,2.447,1.621,4.116,3.764,4.254,2.8.177,4.3-.866,4.717-3.6a10.333,10.333,0,0,0-.213-3.812A3.578,3.578,0,0,0,81.188,44.6C78.353,44.546,76.751,46.407,76.748,49.754Z" transform="translate(-51.142 -29.197)"/><path class="a" d="M332.272,49.69c-.015,4.841-3.043,7.871-7.814,7.823-4.537-.045-7.417-2.976-7.417-7.543,0-5,2.979-7.94,8.021-7.925C329.584,42.056,332.287,44.925,332.272,49.69Zm-3.226.409c-.03-.688-.015-1.088-.072-1.479-.4-2.775-2.05-4.2-4.612-4.023-2.4.168-3.881,1.879-3.939,4.564a15.975,15.975,0,0,0,.021,1.936,4.025,4.025,0,0,0,3.725,3.8c2.7.162,4.026-.743,4.609-3.175C328.929,51.1,328.989,50.454,329.046,50.1Z" transform="translate(-220.753 -29.191)"/><path class="a" d="M236.265,49.693c.009,4.81-2.926,7.82-7.619,7.814s-7.483-2.823-7.5-7.54c-.015-4.937,2.862-7.91,7.667-7.922S236.256,44.741,236.265,49.693Zm-11.834.078c-.072,1.888.3,3.662,2.086,4.624a4.32,4.32,0,0,0,4.817-.189c1.969-1.494,1.879-3.746,1.606-5.887a3.793,3.793,0,0,0-2.769-3.533C226.794,43.863,224.437,45.911,224.431,49.771Z" transform="translate(-153.985 -29.191)"/><path class="a" d="M134.553,56.971v-4.36q0-4.1,0-8.2c0-2.168.009-2.18,2.147-2.056a7.908,7.908,0,0,1,.9.159c.063.577.123,1.109.219,1.966.46-.409.758-.667,1.046-.932a5.514,5.514,0,0,1,5.385-1.4,4.1,4.1,0,0,1,3.253,4c.162,3.551.045,7.117.045,10.791h-2.925c0-1.6.024-3.22-.006-4.838a41.352,41.352,0,0,0-.222-4.895,2.713,2.713,0,0,0-2.992-2.682,3.3,3.3,0,0,0-3.421,2.751c-.241,2.011-.222,4.053-.282,6.082-.036,1.179-.006,2.357-.006,3.614C136.585,56.971,135.665,56.971,134.553,56.971Z" transform="translate(-93.701 -29.133)"/><path class="a" d="M279.006,54.125c1.1.313,2.09.652,3.1.851a2.978,2.978,0,0,0,1.738-.087c.6-.292,1.377-.854,1.449-1.383a2.479,2.479,0,0,0-.986-1.768,9.982,9.982,0,0,0-2.258-1.13c-2.634-1.209-3.566-2.733-3.085-5.087.379-1.867,2.507-3.4,4.874-3.494a14.636,14.636,0,0,1,1.5.006c2.348.147,2.7.631,2.234,2.88a21.708,21.708,0,0,0-3.68-.328,2.1,2.1,0,0,0-1.587,1.173,2.522,2.522,0,0,0,.764,2,9.373,9.373,0,0,0,2.405,1.154c2.291,1.043,3.373,2.646,3.091,4.573a4.772,4.772,0,0,1-4.344,3.878,11.745,11.745,0,0,1-2.832.015C278.844,57.083,278.694,56.843,279.006,54.125Z" transform="translate(-194.229 -29.167)"/><path class="a" d="M194.953,33.476V35.92c-.836,0-1.617.03-2.4-.009-.857-.042-1.326.265-1.323,1.173.012,2.135-.063,4.272.033,6.4.093,2.047.692,2.405,3.617,2.51.292,2.243.168,2.4-1.993,2.553-2.916.2-4.54-1.155-4.678-4.089-.111-2.378-.081-4.762-.06-7.147.009-.968-.253-1.542-1.35-1.4-.9.117-1.233-.274-1.224-1.188.006-.857.223-1.362,1.17-1.254,1.04.117,1.389-.34,1.41-1.359.051-2.45.168-2.522,3.064-2.811,0,.9.045,1.78-.012,2.655-.075,1.158.394,1.645,1.569,1.53C193.459,33.422,194.15,33.476,194.953,33.476Z" transform="translate(-129.268 -20.305)"/><path class="a" d="M41.792,53.306c-.619.64-1.2,1.242-1.732,1.795-3.6-2.078-4.414-9.687.2-13.208L42.1,43.8C39.317,47.828,39.251,49.515,41.792,53.306Z" transform="translate(-25.995 -29.111)"/></svg>