<svg xmlns="http://www.w3.org/2000/svg" width="151" height="46" viewBox="0 0 151 46"><defs><style>.a{fill:#606384;font-size:16px;font-family:SegoeUI, Segoe UI;}.a,.b{letter-spacing:0.018em;}.b,.c{fill:#303778;}.b{font-size:20px;font-family:SegoeUI-Bold, Segoe UI;font-weight:700;}.d{fill:#fff;}</style></defs><g transform="translate(-36 -23)"><text class="a" transform="translate(90 65)"><tspan x="0" y="0">WAREHOUSE</tspan></text><text class="b" transform="translate(89 45)"><tspan x="0" y="0">CONTOSO</tspan></text><rect class="c" width="38" height="38" rx="5" transform="translate(36 29)"/><path class="d" d="M16.76,11.706H4.536a.267.267,0,0,0-.266.266l0,1.6a.267.267,0,0,0,.266.266H16.76a.267.267,0,0,0,.266-.266v-1.6A.267.267,0,0,0,16.76,11.706Zm0,3.192H4.526a.267.267,0,0,0-.266.266l0,1.6a.267.267,0,0,0,.266.266H16.76a.267.267,0,0,0,.266-.266v-1.6A.267.267,0,0,0,16.76,14.9Zm0-6.385H4.543a.267.267,0,0,0-.266.266l0,1.6a.267.267,0,0,0,.266.266H16.76a.267.267,0,0,0,.266-.266V8.78A.267.267,0,0,0,16.76,8.514ZM20.3,3.892,11.253.124a1.6,1.6,0,0,0-1.227,0L.981,3.892A1.6,1.6,0,0,0,0,5.365v11.4a.267.267,0,0,0,.266.266h2.66a.267.267,0,0,0,.266-.266V8.514A1.076,1.076,0,0,1,4.276,7.45h12.73A1.076,1.076,0,0,1,18.09,8.514v8.247a.267.267,0,0,0,.266.266h2.66a.267.267,0,0,0,.266-.266V5.365A1.6,1.6,0,0,0,20.3,3.892Z" transform="translate(44 38.998)"/></g></svg>