<svg xmlns="http://www.w3.org/2000/svg" width="15.284" height="12.393" viewBox="0 0 15.284 12.393"><defs><style>.a{fill:#A7AEFF;}</style></defs><path class="a" d="M4.989,11.707a1.239,1.239,0,1,0,1.239,1.239A1.238,1.238,0,0,0,4.989,11.707Zm0-4.957A1.239,1.239,0,1,0,6.229,7.989,1.238,1.238,0,0,0,4.989,6.75Zm0,9.914A1.239,1.239,0,1,0,6.229,17.9,1.243,1.243,0,0,0,4.989,16.664Zm2.479,2.065H19.034V17.077H7.468Zm0-4.957H19.034V12.12H7.468Zm0-6.609V8.815H19.034V7.163Z" transform="translate(-3.75 -6.75)"/></svg>