<svg xmlns="http://www.w3.org/2000/svg" width="15.032" height="18.954" viewBox="0 0 15.032 18.954"><defs><style>.a{opacity:0.7;}.b{fill:#707487;}</style></defs><g class="a"><path class="b" d="M87.39,163.318H86.3v-1.525a4.793,4.793,0,1,0-9.586,0v1.525H75.625a1.489,1.489,0,0,0-1.525,1.525v9.368a1.684,1.684,0,0,0,1.525,1.743H87.39a1.718,1.718,0,0,0,1.743-1.743v-9.368A1.849,1.849,0,0,0,87.39,163.318Zm-8.5-1.525a2.614,2.614,0,1,1,5.229,0v1.525H78.893v-1.525Zm3.486,9.586v2.4a.213.213,0,0,1-.218.218H81.072a.213.213,0,0,1-.218-.218v-2.4a1.905,1.905,0,0,1-1.307-1.961,2.179,2.179,0,1,1,4.357,0A2.472,2.472,0,0,1,82.379,171.379Z" transform="translate(-74.1 -157)"/></g></svg>