<svg xmlns="http://www.w3.org/2000/svg" width="28.879" height="18.564" viewBox="0 0 28.879 18.564"><defs><style>.a{fill:#303778;}</style></defs><g transform="translate(-1842 -152)"><g transform="translate(1839.748 144.125)"><path class="a" d="M16.676,7.875c-5.182,0-9.269,3.262-14.155,8.592a1.019,1.019,0,0,0-.006,1.373c4.183,4.622,7.87,8.6,14.161,8.6,6.214,0,10.874-5.008,14.187-8.637a1.011,1.011,0,0,0,.032-1.334C27.517,12.374,22.844,7.875,16.676,7.875Zm.284,15.076a5.8,5.8,0,1,1,5.524-5.524A5.8,5.8,0,0,1,16.959,22.951Z" transform="translate(0 0)"/><path class="a" d="M17.625,14.6a3.029,3.029,0,0,1,.2-1.089c-.064,0-.129-.006-.2-.006a4.125,4.125,0,1,0,4.125,4.125c0-.084-.006-.168-.006-.251a2.858,2.858,0,0,1-1.173.251A2.992,2.992,0,0,1,17.625,14.6Z" transform="translate(-0.937 -0.468)"/></g></g></svg>