<svg xmlns="http://www.w3.org/2000/svg" width="27" height="27.007" viewBox="0 0 27 27.007"><defs><style>.a{fill:#a7aeff;}</style></defs><path class="a" d="M29.271,18A3.474,3.474,0,0,1,31.5,14.759a13.772,13.772,0,0,0-1.666-4.015,3.521,3.521,0,0,1-1.413.3,3.467,3.467,0,0,1-3.171-4.88A13.73,13.73,0,0,0,21.241,4.5a3.471,3.471,0,0,1-6.483,0,13.772,13.772,0,0,0-4.015,1.666,3.467,3.467,0,0,1-3.171,4.88,3.406,3.406,0,0,1-1.413-.3A14.076,14.076,0,0,0,4.5,14.766a3.473,3.473,0,0,1,.007,6.483,13.772,13.772,0,0,0,1.666,4.015,3.468,3.468,0,0,1,4.577,4.577,13.852,13.852,0,0,0,4.015,1.666,3.465,3.465,0,0,1,6.469,0,13.772,13.772,0,0,0,4.015-1.666,3.472,3.472,0,0,1,4.577-4.577,13.852,13.852,0,0,0,1.666-4.015A3.491,3.491,0,0,1,29.271,18ZM18.063,23.618a5.625,5.625,0,1,1,5.625-5.625A5.623,5.623,0,0,1,18.063,23.618Z" transform="translate(-4.5 -4.5)"/></svg>